<?xml version="1.0"?><svg version="1.2" baseProfile="tiny-ps" viewBox="0 0 300 300" xmlns="http://www.w3.org/2000/svg" xmlns:xlink="http://www.w3.org/1999/xlink"><title>ligosvgtiny</title><g><g fill="#fdfefd" transform="matrix(.1 0 0 -.1 0 300)"><path d="M1507 2934c-3-3-49-9-101-14l-96-8-67-31c-84-40-190-118-249-185l-45-51-34-70-34-70-22-105c-35-167-37-174-75-231l-35-54-51-37-51-38h16c27 0 110 31 140 52l27 19 7-16 6-17-6-117-6-116-14-45c-18-60-89-175-140-227-23-24-36-43-31-43 13 0 89 54 99 69 3 6 10 11 14 11h8l-13-52c-8-29-14-63-14-75v-23H450V890l-52-1-53-1-50-17-50-18-3-15c-2-8 6-59 17-112l20-97 54-67c155-192 355-343 590-444l92-40 110-28c322-82 625-63 935 59l105 41 88 52c178 107 296 209 418 360l80 100-8 17-8 16v207l-49 20c-28 10-67 20-87 21l-37 1-7 124c-4 68-6 185-4 260l4 137-132 3-133 3v38c0 37-14 124-26 166l-6 20 33-31c37-34 109-84 122-84 4 0-10 24-32 53-48 64-123 210-151 297-20 61-62 262-56 268 2 1 24-22 50-52l47-55 25-56 26-55 5-73 5-72-10-37c-6-21-7-38-4-38 10 0 64 87 79 124l11 31 1 70 1 70-29 60c-15 33-56 98-90 144-63 84-121 173-121 185 0 4 12 1 28-7l27-13 23 4 23 4 24 55c14 31 25 63 25 73v18l-25 6c-29 7-32 18-10 36 20 16 19 35-4 94l-19 50-21 18c-13 9-38 20-57 24l-34 6-57-28c-32-16-62-31-67-33-4-2 8 26 29 63l37 66-26 10c-14 5-37 14-51 20l-25 9-20-39-20-39v-36c0-19-3-35-6-35-4 0-26 18-49 39-54 50-122 85-216 111l-74 20h-46c-25 0-48-3-52-6zM860 1615c-5-13-14-54-21-90l-11-65h-22c-13 0-25 3-29 6-9 9 13 65 49 122 36 56 49 67 34 27zm1375-98 14-47h-49v44c0 24-3 53-6 63l-7 18 17-16c9-9 23-37 31-62zm409-677 10-10-10-27-9-28-38-3-37-3v94l37-6c20-4 41-11 47-17zM450 786v-15l-17-5c-10-3-34-6-53-8l-35-3-3 17-3 16 18 5c10 3 35 5 56 6l37 1v-14zm2145-116 6-10h-41v10c0 6 6 10 14 10s18-4 21-10z"/></g><g fill="#f3ddce" transform="matrix(.1 0 0 -.1 0 300)"><path d="M1507 2934c-3-3-49-9-101-14l-96-8-67-31c-84-40-190-118-249-185l-45-51-34-70-34-70-22-105c-35-167-37-174-75-231l-35-54-51-37-51-38h16c27 0 110 31 140 52l27 19 7-16 6-17-6-117-6-116-14-45c-18-60-89-175-140-227-23-24-36-43-31-43 13 0 89 54 99 69 3 6 10 11 14 11h8l-13-52c-8-29-14-63-14-75v-23H450V890l-52-1-53-1-50-17-50-18-3-15c-2-8 6-59 17-112l20-97 37-47c51-63 123-142 156-170l28-24 48 16c27 9 57 22 66 29l16 12 4 30c2 17 7 42 11 57l7 28h-19l4 24 5 24-21 7-20 6 6 32c3 18 12 41 20 52 7 11 13 24 13 30v10l-64 19-65 18-5 14-5 13 14 28 15 28-17 13c-9 6-25 12-35 12h-18v560h708c389 0 856 3 1038 7l330 6 11-49 11-49-2 50-1 50-132 3-133 3v38c0 37-14 124-26 166l-6 20 33-31c37-34 109-84 122-84 4 0-10 24-32 53-48 64-123 210-151 297-20 61-62 262-56 268 2 1 24-22 50-52l47-55 25-56 26-55 5-73 5-72-10-37c-6-21-7-38-4-38 10 0 64 87 79 124l11 31 1 70 1 70-29 60c-15 33-56 98-90 144-63 84-121 173-121 185 0 4 12 1 28-7l27-13 23 4 23 4 24 55c14 31 25 63 25 73v18l-25 6c-29 7-32 18-10 36 20 16 19 35-4 94l-19 50-21 18c-13 9-38 20-57 24l-34 6-57-28c-32-16-62-31-67-33-4-2 8 26 29 63l37 66-26 10c-14 5-37 14-51 20l-25 9-20-39-20-39v-36c0-19-3-35-6-35-4 0-26 18-49 39-54 50-122 85-216 111l-74 20h-46c-25 0-48-3-52-6zm200-900 6-15-12-12-11-11-11 11-12 12 6 15c4 9 11 16 17 16s13-7 17-16zm-467-49c0-18-15-26-34-19s-21 31-3 37 37-3 37-18zm620-25c0-19-35-69-42-60-2 3-2 29 0 58l4 53 19-17c10-9 19-25 19-34zm-197-12c7-54 4-57-17-13l-17 35 6 10c13 20 23 9 28-32zm-467-63 21-54-31 13-31 12-9 27-9 26 13 15c19 24 23 20 46-39zm164 23c0-36-4-35-14 5l-6 27h20v-32zm-500-293c-5-13-14-54-21-90l-11-65h-22c-13 0-25 3-29 6-9 9 13 65 49 122 36 56 49 67 34 27zm1375-98 14-47h-49v44c0 24-3 53-6 63l-7 18 17-16c9-9 23-37 31-62zM450 786v-15l-17-5c-10-3-34-6-53-8l-35-3-3 17-3 16 18 5c10 3 35 5 56 6l37 1v-14zm1532 428-22-15V861l16-15 15-16h339l16 26 17 25-7 162-7 162-16 13-17 12h-312l-22-16zm96-77 3-17-15-6-16-6-15 12-14 11 6 15 6 15 21-3 21-3 3-18zm192-77 20-20V899l-22 3-23 3-3 62-3 62-20 6-20 7-14-12-15-12V900h-50v170h19c11 0 23-5 26-10l6-10 22 15c29 20 53 19 77-5zm-192-77-3-88-22-1-23-1v177h51l-3-87zm-221 190c-4-3-7-25-7-47v-41l-43 3-43 4-27-28-27-27-6-26c-10-43-12-47-13-18l-1 29-29 28-28 29-27 7-27 6-39-17-39-18-17-35-16-35 6-36 5-36 31-27 30-28h96l22 16c12 8 22 21 22 29v14l-21 12-21 11-11-11c-6-6-23-11-38-11h-27l-5 14-6 14 75 4 75 3 5-22c3-11 17-31 30-44l24-23 33 2c17 0 56 1 85 1l52 1v310h-33c-19 0-37-3-40-7zm-249-160 4-13h-64l12 15 13 16 15-3c9-2 17-9 20-15zm237-3 19-21-10-27-9-27-18-3-18-4-14 12-15 12v47l16 15c20 21 27 20 49-4zm-907 149-18-10v-59l25-6 25-6 16 13 15 12-3 20-3 20-20 13-20 13-17-10zm332-144V859l38 3 37 3v27c1 15 4 30 7 34l7 6 23-36 23-36h85v8c0 4-16 29-35 56s-35 55-35 61 16 26 35 45 35 38 35 42v8h-89l-28-37-28-37-5 80-5 79-32 3-33 3v-156zm-585-12c4-82 9-150 10-153 2-3 48-4 104-2l101 3v69H772l-7 115-7 115h-80l7-147zm452 71c-4-4-31-8-59-8l-53-1 1-32c0-18 1-67 2-109l2-75 33 3 32 3 3 67 3 66 14 12 15 12 14-5 15-6 3-68 3-68 38-3 37-3v166l-18 22-17 21-30 6-31 7-7-7zm-210-11c-4-3-7-53-7-110V850h80v94c0 52-3 101-6 110l-6 16h-27c-15 0-31-3-34-7zm1625-24c-1-15-5-41-8-58l-6-31h-34c-42 0-47-10-29-54l15-36 30-27c17-14 30-32 30-40v-13h-79l-33-14c-18-8-45-17-60-21l-28-5v-41l29-16 29-17-11-26c-7-14-17-29-24-33-17-11-16-32 1-47l15-11-5-14-6-14 24-33c13-18 25-42 26-53 4-23 40-54 63-55h16l60 62c32 35 87 98 122 142l62 79-8 16-8 16v207l-49 20c-28 10-67 20-88 21l-37 1-4 61c-2 33-4 48-5 34zm92-199 10-10-10-27-9-28-38-3-37-3v94l37-6c20-4 41-11 47-17zm-49-170 6-10h-41v10c0 6 6 10 14 10s18-4 21-10zM835 700c-3-5-3-79 1-165l7-156 106 3 106 3 3 22 3 22-83 3-83 3-3 48-3 47h141v50H890v79l78 3 77 3 3 23 3 22H841l-6-10zm1192 4c-4-4-7-20-7-35v-27l-20-5-20-5v-34l19-5 18-5 6-80 7-80 11-14 11-14h89l-3 23-3 22h-50l-3 71-3 72 26 6 25 6v40h-49l-3 33-3 32-20 3c-12 2-24 0-28-4zm-639-80-28-15v21h-53l6-112c4-62 7-134 7-160v-48h50v104l12-12 12-12h86l20 20c39 39 48 86 29 153l-10 38-32 19c-38 24-62 24-99 4zm72-54 20-20v-76l-16-22-15-22h-39l-20 20-20 20v76l16 22 15 22h39l20-20zm150 43-31-28-9-38-8-38 9-31c5-17 18-42 30-54l22-24 34-6c46-9 78 1 108 34 31 34 31 42 0 42h-25l-20-20-20-20h-39l-20 26-21 26 6 9 5 9h159v25c0 34-24 80-52 99l-22 16h-76l-30-27zm102-30c10-9 18-22 18-30v-13h-110v10c0 16 38 50 57 50 9 0 25-7 35-17zm113 48c-3-6-2-60 1-120l7-111h47v146l16 22 15 22h47l5 19c6 25 0 31-33 31h-26l-13-12-13-13-5 13-5 12h-18c-10 0-21-4-25-9zm-749-9c-2-4 13-31 34-59l39-51-40-57-40-58 9-9 9-9 26 10 26 10 16 31c8 16 19 30 24 30s21-16 35-35l27-35h49v9c0 5-18 32-39 61l-39 52 34 48c19 26 34 52 34 59v11h-50l-22-35c-13-19-26-35-29-35-4 0-17 16-30 35l-24 35h-22c-12 0-24-4-27-8zm-40-541-6-9 107-26c60-14 151-31 203-37l95-11 130 5 130 5 102 22c57 12 127 30 155 40l53 19h-482l-482 1-5-9z"/></g><g fill="#bfa896" transform="matrix(.1 0 0 -.1 0 300)"><path d="M1507 2934c-3-3-49-9-101-14l-96-8-67-31c-84-40-190-118-249-185l-45-51-34-70-34-70-22-105c-35-167-37-174-75-231l-35-54-51-37-51-38h16c27 0 110 31 140 52l27 19 7-16 6-17-6-117-6-116-14-45c-18-60-89-175-140-227-23-24-36-43-31-43 13 0 89 54 99 69 3 6 10 11 14 11h8l-13-52c-8-29-14-63-14-75v-22l-147-4-148-3 190-1 190-1-25 7-25 7 3 20c5 28 41 97 68 130l23 29-13-45c-8-25-17-69-21-98l-7-53 860 7 861 7 4-44 4-44-1 45-1 45-132 3-133 3v38c0 37-14 124-26 166l-6 20 33-31c37-34 109-84 122-84 4 0-10 24-32 53-48 64-123 210-151 297-20 61-62 262-56 268 2 1 24-22 50-52l47-55 25-56 26-55 5-73 5-72-10-37c-6-21-7-38-4-38 10 0 64 87 79 124l11 31 1 70 1 70-29 60c-15 33-56 98-90 144-63 84-121 173-121 185 0 4 12 1 28-7l27-13 23 4 23 4 24 55c14 31 25 63 25 73v18l-25 6c-29 7-32 18-10 36 20 16 19 35-4 94l-19 50-21 18c-13 9-38 20-57 24l-34 6-57-28c-32-16-62-31-67-33-4-2 8 26 29 63l37 66-26 10c-14 5-37 14-51 20l-25 9-20-39-20-39v-36c0-19-3-35-6-35-4 0-26 18-49 39-54 50-122 85-216 111l-74 20h-46c-25 0-48-3-52-6zm-267-651v-13h-20c-23 0-24 4-9 32l11 21 9-14c5-8 9-20 9-26zm457-42 68-49 32-7 33-7-7 18-7 18 50-28c52-30 74-52 74-73v-13l-57 6-58 7-20 13-19 14h-71l-74-37-74-36-15-27-15-26h-54l-54 1-10 17-9 17-53 11c-28 6-79 15-112 20l-60 9 70-4 70-4-18 10c-11 6-40 12-65 13l-47 1-32-24c-18-14-35-22-38-20-3 3-7 21-10 40l-5 34 11-22c21-41 32-28 44 50l7 46 12 9c6 5 26 15 44 22l33 13 15-22c23-32 76-80 107-97s33-14 11 27c-8 17-13 33-11 36 3 2 22-4 44-15 21-11 67-26 101-32l62-13 36 6 37 6-34-24c-37-28-27-35 11-8 14 10 50 23 80 29l55 12-43 1-43 1-24 16-23 15-16 40c-30 75-21 76 71 10zm-618-170 11-19-28-4-28-4 4 23 4 23h14c7 0 18-9 23-19zm760-46c12-25 21-52 21-60 0-23 18-18 36 11l17 26-17 29c-17 28-13 37 10 21 20-13 34-50 34-89v-38l-25-52-24-53-15 6c-9 3-14 10-11 14l5 8-22 5-22 6-20-17-21-17 14 18 13 17h-18c-11 0-26-4-34-10l-14-9-6 10-6 9-20-21c-10-13-14-20-9-16l11 6v-39l-21 6c-11 3-31 14-45 23l-25 18-19 39-19 39-5 46-4 46 23 22c12 11 28 21 35 21h12l-5-22-5-23 16 23 17 22h37l5-13c3-8 2-20-3-27l-8-13-22 6-22 6 5-44 5-45 16-25 16-25h90l16 38 16 37-6 49c-3 26-11 54-17 62l-11 14h30l21-45zm-454-28 15-21v-41c0-22-5-57-10-77l-11-37-37-31-37-30h-38l16 18c21 23 22 39 2 22l-15-12v10c0 6 12 17 28 24l27 14-2 22-3 22h30l-6 33c-3 17-8 38-10 45l-4 13 10-6 10-6v11c0 6-7 21-15 34l-16 23 26-5 26-4 14-21zm-265 18c0-2-10-24-22-49l-21-44 29-25 29-26 3 17c7 42 26 108 34 119l9 11 27-7 27-7v-39l-27 2-27 2 6-37c8-48 28-87 55-106l22-16-12-12-12-12v24l-27-6c-16-4-39-16-51-28l-24-21-32 37-33 37-11 39c-7 22-12 58-12 80v41l22 15c21 15 48 21 48 11zm440-137c19-37 46-78 59-92l24-25 56-12 56-11 56 5c30 4 63 9 72 13l17 6v-21c0-25-38-88-75-125-14-15-66-53-115-86l-89-60h-182l-61 21c-148 50-216 102-242 187l-7 22h104l68 20 68 21 20 25c11 14 30 55 42 92s26 73 32 80l10 13 26-3 26-3 35-67zm675-361 14-47h-49v44c0 24-3 53-6 63l-7 18 17-16c9-9 23-37 31-62zm-749 305c-2-4-1-14 5-22l9-15v23c0 23-5 28-14 14zm145-153c-12-16-27-29-34-29s-22-7-33-16l-19-15 24 7c29 8 111 56 111 65 0 4-6 9-14 12l-13 5-22-29zm-216-49 6-10h26c32 0 28 5-10 14l-29 7 7-11zm568-407-13-5V852l15-12 14-12 163 4 163 3 13 8 12 8v345l-12 12-12 12-166-1c-91 0-171-3-177-6zm97-78v-23l-12-5c-18-6-48 11-48 28s29 35 47 28l13-5v-23zm192-72 18-16V889l-22 3-23 3-5 65-5 65-24 3-24 4-8-14c-5-7-9-39-9-70v-58h-50v181l35-3c19-1 37 1 41 5s19 7 32 7h25l19-17zm-192-83v-90h-50v180h50v-90zm-220 145v-57l-17 7c-10 4-28 10-40 12l-23 5-26-17-26-17-15-35-15-36 6-32 6-33 25-26 24-26h77l13 13 13 12 5-12 5-13h59l-3 153-3 152-32 3-33 3v-56zm-19-105 19-11v-55l-12-12c-7-7-22-12-34-12h-23l-7 23c-9 26-6 47 8 65 13 15 23 15 49 2zm-914 133c-4-3-7-16-7-28v-23l15-12 14-12 20 7c10 3 22 13 25 21l6 15-10 20-11 19h-23c-12 0-26-3-29-7zm343-143V860h69l3 32 3 31 10 4 10 3 23-35 22-35h35c18 0 36 4 39 8 2 4-13 31-35 60l-40 52 35 44c20 23 33 45 30 49-3 3-22 3-41 0l-36-6-28-31-28-31-1 78v77h-70v-150zm-581 136c-2-2-3-70-1-150l3-146h209v69l-67 3-68 3-3 113-3 112h-33c-18 0-35-2-37-4zm828-86-26-21-10-34-9-35 6-22c3-13 12-33 19-45l15-22 35-12 35-11 31 6c29 6 67 32 67 46 0 4-11 12-24 18l-24 10-10-10-10-10-28 4-27 3-5 13-4 12h142v25c0 34-25 82-49 95-11 5-37 10-59 10h-39l-26-20zm93-45 12-15h-72v9c0 22 43 26 60 6zm-494 48c-3-4-24-6-46-5l-40 3V860h70v59c0 33 3 66 6 75l6 16h46l6-16c3-9 6-42 6-75v-59h72l-3 84-4 84-19 21-19 21h-37c-20 0-40-3-44-7zM922 958l3-103 29-3 28-4 9 9 9 9-7 97-6 97h-68l3-102zm1628 47-5-60-37-3-38-3v-15c0-20 45-64 65-64h15v-80h-24c-13 0-57-11-97-24l-74-24 1-11c2-25 5-28 29-39l26-12 62-1c34-1 53-3 42-6-17-3-140-60-154-70-3-2 5-13 17-25l22-22 36 1c19 1 52 4 72 6l37 6-70-23c-38-13-71-28-72-33-2-5 6-18 18-29l21-19 50-1 51-2 7-12 8-12 7 12 7 11-15 12-14 12 8 32 9 31 35-11 35-11 11 11 11 11-59 18-58 19v70l24 3 24 4 59-22c33-12 62-19 65-16 9 8-17 35-51 54l-31 16-78 6-79 7-9 14c-5 8-8 21-6 29l2 15 53 3 52 3v99h19c11 0 31-4 45-10l26-10v-18c0-9-7-28-16-40l-15-22h10c6 0 28-15 48-33 21-18 47-39 57-47l19-15-12 23-12 23 7 93 7 93-12 7-11 7 6-16c8-19-6-189-14-180-3 3-6 34-7 67v62l-83 21-83 20-2 10c-1 5 14 20 33 33l35 24-22-6-22-7-3 63-4 63-4-60zm45-335 6-10h-41v10c0 6 6 10 14 10s18-4 21-10zM452 930v-35l5 18c2 9 2 25 0 35l-5 17v-35zm-79-47 37-4 25-25 24-24-22-5c-12-3-51-11-87-18l-65-13-12-24-13-25v19c0 11-2 17-5 15-2-3 1-33 7-67l11-61 40 45c22 25 50 50 61 55l21 9-25-3-25-2-3 16-3 16 23 7c13 3 38 6 56 6h32v-14c0-8-6-17-12-19-7-3 13-6 45-6l58-1-17-32c-21-42-31-48-78-48h-40l-42-21c-43-20-71-45-62-54 3-3 29 6 59 20s64 25 77 25h22v-78l-51-22-52-22 16-16 16-16 26 12c14 7 34 12 44 12h18l12-27 12-27-17-13c-10-7-22-13-27-13h-8l6-10 6-10 17 9c9 4 40 14 69 20l51 13 17 18 17 19-5 15-6 14-73 10-73 9 66 2 66 1 16 18c10 10 17 23 17 28v10l-66 24c-36 14-68 28-71 33l-4 7h88l21 23c12 13 22 30 22 38v15l-64 17c-35 9-74 17-85 17-29 0-26 12 9 38l30 23v36l-46 7c-26 3-68 5-93 4l-46-1 38-4zm-129-37c-3-8-4-25-1-38l4-23 2 32 1 31 13 5 12 5-13 1c-7 1-15-5-18-13zm596-295V391l8-4c4-3 52-2 107 1l100 7v30l-82 3-83 3v99h141l-3 23-3 22-67-4-68-3v102h161l-3 18-3 17-103 3-102 3V551zm1190 124v-35h-38l-6-15-6-16 25-9 25-10V431l16-15 15-16h34c19 0 36 4 39 8 7 12-7 29-29 33l-20 4-8 64c-4 36-6 70-3 78l5 13h41v40h-50v70h-40v-35zm-397-45-23-9-20-33-20-33v-76l16-30 15-31 36-14 35-15 32 7c34 7 76 40 76 61v13h-37l-18-20-18-20h-47l-20 20c-11 11-20 27-20 35v15h159l6 11 7 11-17 45-17 45-34 14c-38 16-59 17-91 4zm81-46c9-8 16-22 16-30v-14h-110v12c0 6 7 20 17 30l16 18h46l15-16zm178 40-22-15v21h-40V400h50v159l16 15 15 16h49v50h-23c-12 0-33-7-45-16zm-680-34c-15-21-29-39-32-39-3-1-15 15-28 34l-22 35h-25c-14 0-25-2-25-5s16-27 36-54l35-50-35-53c-42-62-43-68-13-68h22l25 40c14 22 28 40 31 40 4 0 18-18 33-40l26-40h25c14 0 25 3 25 7 0 3-18 31-41 61l-41 54 35 51c36 51 38 67 11 67h-14l-28-40zm108-120V310h50v101l19-11c11-5 33-10 49-10h29l26 21 27 20 10 40 11 39-10 37c-6 20-20 46-32 59l-22 24h-80l-19-17-18-16v33h-40V470zm138 111c7-4 17-23 21-42l8-34-8-29c-13-47-56-61-91-29l-18 16v44c0 24 5 53 10 64l11 19h27c15 0 33-4 40-9zM1335 80l-310-5 110-27c255-63 479-64 727-3 53 13 105 28 115 34l18 10-175-2c-96-1-314-4-485-7z"/></g><g fill="#4d7163" transform="matrix(.1 0 0 -.1 0 300)"><path d="M1507 2934c-3-3-49-9-101-14l-96-8-67-31c-84-40-190-118-249-185l-45-51-34-70-34-70-22-105c-35-167-37-174-75-231l-35-54-51-37-51-38h16c27 0 110 31 140 52l27 19 7-16 6-17-6-117-6-116-14-45c-18-60-89-175-140-227-23-24-36-43-31-43 13 0 89 54 99 69 3 6 10 11 14 11h8l-13-52c-8-29-14-63-14-75v-23h36l1 20c2 27 39 100 69 136l23 29-13-45c-7-25-16-67-20-93l-7-48 308 2 308 1-65 23c-161 55-219 102-259 208l-9 24 49-5 49-5 63 13c34 6 74 19 89 28l27 16 20 45c10 25 25 66 32 89l13 44 24 9 23 9 18-9 17-10 19-43c11-24 31-61 46-84l27-40 40-12 39-12h64l64 1 40 14c21 8 41 13 42 11 2-1-4-23-13-49l-16-46-39-45c-22-24-70-66-107-92-72-50-105-79-58-50l29 18-5-26-5-26 426 2c234 1 366 4 294 5l-133 4v38c0 37-14 124-26 166l-6 20 33-31c37-34 109-84 122-84 4 0-10 24-32 53-48 64-123 210-151 297-20 61-62 262-56 268 2 1 24-22 50-52l47-55 25-56 26-55 5-73 5-72-10-37c-6-21-7-38-4-38 10 0 64 87 79 124l11 31 1 70 1 70-29 60c-15 33-56 98-90 144-63 84-121 173-121 185 0 4 12 1 28-7l27-13 23 4 23 4 24 55c14 31 25 63 25 73v18l-25 6c-29 7-32 18-10 36 20 16 19 35-4 94l-19 50-21 18c-13 9-38 20-57 24l-34 6-57-28c-32-16-62-31-67-33-4-2 8 26 29 63l37 66-26 10c-14 5-37 14-51 20l-25 9-20-39-20-39v-36c0-19-3-35-6-35-4 0-26 18-49 39-54 50-122 85-216 111l-74 20h-46c-25 0-48-3-52-6zm-473-245c-43-64-83-113-89-107-15 15 90 158 116 158 4 0-8-23-27-51zm839-39c57-52 110-126 121-170l7-25-32 58-32 57-79 76c-86 82-74 86 15 4zm-27-6 34-35v-40l-30 21c-33 24-60 58-60 77 0 23 22 14 56-23zm-801-46c-4-24-17-67-30-95l-24-53h-10c-14 0-14 21-1 54l10 26h-10c-5 0-24-17-41-39l-33-39-22-58c-27-68-32-51-7 22 24 73 136 224 165 224h10l-7-42zm680-45c26-39 32-68 16-77l-9-6-31 48c-17 27-31 54-31 60v12h29l26-37zm-478-5-5-13-1 19c-1 11 2 17 5 13 3-3 4-12 1-19zm43-17v-30l-10-6-10-6v71h20v-29zm-160-28v-35l-20-5c-11-3-20-9-20-14s-5-9-11-9h-10l7 23c3 12 13 37 20 55l14 33 10-6 10-6v-36zm218 8c2-18 1-40-3-49l-6-17-15 19-14 20v67l18-3 17-3 3-34zm314 13 12-25-14-9c-20-13-30-3-30 31v29h10c6 0 16-12 22-26zm-232-41v-28l-10 15c-13 20-13 40 0 40h10v-27zm-156-201 7-12h-18c-10 0-35-3-57-7l-38-6 5 19c3 10 16 53 28 94l22 75 22-76c12-41 25-81 29-87zm327 66 19-27-17-10-18-10 33-1h34l39-33c21-19 62-46 91-62l52-28-21 29c-11 16-26 39-32 52l-12 23 55-44c30-25 70-51 90-58l35-13 5-20c3-12 6-28 6-36v-15l-62 6-63 6-37 16c-53 24-63 22-154-24l-82-41-10-23-10-22-53-5-52-5-21 23-21 24-90 15-89 16-48-12c-26-7-50-11-52-8-3 3-6 29-8 58l-3 54 13 4 12 5v-29c0-15 5-35 10-43l10-15v42c0 23 3 49 6 58 7 17 63 48 106 59l27 6 5-18c7-21 95-116 102-110 2 3-9 29-25 59s-32 67-35 82l-7 29 53-55 54-54 59-18c33-10 89-20 125-23l65-5-48 52-48 52-19 42c-11 24-22 63-25 87l-7 45 21-25c12-14 31-37 42-52zm-484-120-5-13-1 19c-1 11 2 17 5 13 3-3 4-12 1-19zm1238-156c9-35 14-70 12-80l-5-17-1 22c0 12-14 58-31 103-35 95-37 106-10 65 11-17 27-59 35-93zm-1267-4 15-18h-10c-6 0-25-3-43-6l-32-7 7 34c3 19 9 43 12 53l6 20 15-30c8-16 21-37 30-46zm655 35c-7-2-19-2-25 0l-13 5h50l-12-5zm86-49c11-14 25-41 32-61l11-35 20 19 19 20-21 36-22 37h11c7 0 23-11 36-24l24-24 6-33 6-34-23-64-23-65-35-20-35-21h-140l-34 20-34 20-21 39-20 40-4 57-4 58 32 20 32 19 31-4c17-2 35-8 41-14l11-11-12-17-11-17-16 1-16 2v-79l25-24 24-25h20c25 0 51 10 51 19v8l-32-5-33-5 14 17 13 16h57l6 20 6 20-6 33c-4 17-14 44-21 60l-15 27h15c8 0 24-12 35-26zm181-4c0-5-5-10-11-10h-10l6 10c3 6 8 10 11 10 2 0 4-4 4-10zm-880-25c0-3-11-28-25-55l-25-49 28-19 27-20 2 32c3 36 31 116 42 116 4 0 19-6 34-12l27-13v-45l-12-1c-7-1-19-1-25 0l-13 2v-26c0-14 6-41 14-60l14-33 22-12 21-11 30 6 29 7v32l-12-12c-7-7-20-12-30-12h-18v28l40 7 40 7v26c0 15-9 46-20 70l-19 43 14 6 15 5 30-12 29-12 11-34 11-34-11-57-12-58-33-31-34-31-45-12c-25-6-59-11-76-11h-31l-30 15-29 16-25 39c-14 21-29 60-35 86l-11 47 7 30 6 29 31 14c35 14 47 17 47 9zm850-174v-60l-21-6c-11-4-22-5-24-3-4 3 38 128 42 128 2 0 3-27 3-59zm-914-84 15-28-20 11-21 11v14c0 7-3 22-6 32l-6 18 11-15c7-8 19-28 27-43zm1169-250 14-47h-49v44c0 24-3 53-6 63l-7 18 17-16c9-9 23-37 31-62zm-595 153-11-21 20 13c22 13 28 28 11 28-5 0-14-9-20-20zm-10-200-15-10h12c6 0 15 5 18 10 8 12 4 12-15 0zm352-262-12-12v-162c0-89 3-169 6-178l6-16h344l12 12 12 12v317l-10 20-11 19h-335l-12-12zm102-60 11-18-17-16-16-17-16 6c-9 4-19 13-22 22l-6 15 12 16 13 15 15-3c8-2 20-11 26-20zm164-64 23-7 14-28 15-28V890h-60v48c0 26-3 57-6 70l-6 22h-39l-5-15c-4-8-7-39-8-68l-1-52-27-3-27-3-6 23c-3 13-5 55-3 93l3 70 28 3 27 3v-22l22 15c25 18 25 18 56 10zm-166-76c0-40 1-82 2-93l1-20-26-3-26-3-7 86c-3 48-4 91-1 96 4 5 17 9 31 9h24l2-72zm-222 105v-57l-12 12-12 12h-77l-24-26-25-27v-99l29-29 29-29h58l22 16 22 15v-21h60v63c0 34-3 99-7 145l-6 82h-57v-57zm-4-111 12-24-6-20-5-20-25-11-24-11-19 23c-23 29-24 49-2 73l17 19 20-3 20-3 12-23zm-924 146c-6-6-12-20-12-30v-17l19-10 18-10 18 12 17 13-4 25-3 24-20 3-20 3-13-13zm340-135 3-148h60l5 33 5 33 10 2c6 1 19-13 30-30l20-32 38-1c20 0 37 3 37 6s-16 26-35 51-35 51-35 57c0 5 17 27 37 48l37 38h-82l-31-37-30-38-1 36c0 20-3 57-6 83l-7 46h-58l3-147zm-580-10 3-148h200v60l-67 3-67 3-3 112-3 112-33 3-33 3 3-148zm842 66c-11-6-28-23-37-39l-17-28v-69l20-26 20-26 35-11 35-12 34 12c19 6 40 17 46 25l11 14-19 10-19 10-31-11-31-12-22 19-21 20 73 5 74 5-2 35-1 35-31 27-31 28-33-1c-17 0-41-5-53-10zm83-56 4-12-25-7-26-6-16 6-16 6 13 16 12 15 25-3 25-3 4-12zm-505 41-22-15v21h-60V860h69l3 73 3 72h60l3-73 3-73 32 3 32 3 3 30c2 16 1 54-3 83l-7 54-19 19-19 19h-56l-22-16zm-182-94V860h60v200h-60V960zm1540-31v-10l10 6c6 3 10 8 10 11 0 2-4 4-10 4-5 0-10-5-10-11zM428 883c7-3 16-2 19 1 4 3-2 6-13 5l-19-1 13-5zm2122-30v-18l8 10c4 6 11 13 16 18l9 7h-33v-17zm-190-142c0-6 4-13 10-16l10-6-6 15c-7 18-14 21-14 7zm-1492-8-28-4V390h210v40H890v99l67 3 68 3 3 17 3 17-73 3-73 3v90l78 3 77 3v39l-72-1c-40-1-85-4-100-6zm1175 0-13-5v-68h-40v-30h40V440l21-21 20-20 27 3 27 3 3 18 3 17h-49l-6 16c-3 9-6 45-6 80v64h50v30h-50v34c0 37-7 46-27 39zm682-13c3-5 8-10 11-10 2 0 4 5 4 10 0 6-5 10-11 10h-10l6-10zM450 670l-15-10h10c6 0 17 5 25 10l15 10h-10c-5 0-17-5-25-10zm1446-51-26-20v31h-41l3-112 3-113 18-3 17-3v136l13 25 13 25 29 5 30 5 3 23 3 22h-19c-11 0-31-9-46-21zm-514-5-22-15v21h-40V309l23 3 22 3-3 53-3 52h8c4 0 17-7 27-15 25-19 49-19 85-1l27 15 12 26c7 14 12 44 12 66v40l-15 29c-18 35-43 50-82 50h-29l-22-16zm77-31 22-18 5-35 6-35-11-28-11-28-22-8c-12-4-31-6-41-3l-19 5-15 32-16 33 7 36 7 35 22 16c28 19 40 19 66-2zm148 21-27-26-6-34-6-34 7-27c3-16 18-40 33-55l26-28h97l25 25 25 25-6 10c-10 16-29 12-48-10l-17-20h-57l-16 18c-10 10-17 26-17 35v17h160v68l-26 31-26 31h-95l-26-26zm119-29 17-26-7-6c-3-3-31-8-61-11l-55-4v17c0 10 7 27 17 37l16 18h57l16-25zm-612-5c20-28 36-53 36-58 0-4-16-31-35-59-41-61-41-63-15-63h20l26 40c15 22 31 40 35 40 5 0 19-16 31-35 26-39 39-47 57-35l13 7-36 50c-20 28-36 54-36 58s16 29 36 56l36 49h-50l-22-35c-12-19-25-35-30-35s-18 16-30 35l-22 35h-50l36-50zm-491 25v-14l9 5 8 5-5 10c-9 13-12 11-12-6zm1927-45c0-6 7-10 15-10s15 2 15 4-7 6-15 10l-15 5v-9zM396 521l-18-20 21 6 21 5v14c0 18-4 18-24-5zm2155-77 1-19 5 13c3 7 2 16-1 19-3 4-6-2-5-13zM1070 64c25-8 90-24 145-36l100-22h380l103 23c57 12 120 29 140 36l37 14-475-1h-475l45-14z"/></g><g fill="#384039" transform="matrix(.1 0 0 -.1 0 300)"><path d="m1465 2925-50-13 26-1 27-1 12-15 12-15h-16c-9 0-16-4-16-10 0-5 5-10 10-10 6 0 31-19 55-41l45-42 7 7 7 6 39-37 40-38-20 30c-11 17-24 41-28 54l-7 24 88-48c92-49 124-72 234-164l65-54-3-24-3-23 17-45c22-58 13-67-16-18l-23 38-7-25-6-25-22 2-22 3v-60h-10c-6 0-31 27-57 60-25 33-48 60-50 60-7 0 65-127 114-202 24-36 62-83 85-104l41-37-29 7c-16 4-38 9-49 13l-20 5 10-10c6-6 35-14 65-18l55-6-47 43-47 44-7 24-6 24 16-6 17-7 9 24c5 13 14 27 19 31 6 3 11 16 11 28l1 22 10-18c5-9 14-36 19-60l9-42-5 53c-2 28-2 52 1 52s16-22 29-49c13-28 34-66 46-85l22-36 8 5 8 5 44-53c51-59 84-119 97-174l9-38-5 85-6 85-18 50c-18 49-88 169-89 151 0-5 9-23 20-40 10-18 22-51 26-74l7-42h-11c-42 0-160 194-193 318l-16 62h8c5 0 25-22 45-50 20-27 38-50 41-50 5 0-34 68-49 85-11 12-10 25 2 25 6 0 24-21 41-47 16-27 31-46 32-44s13-1 27-9l25-12-39 40-39 41 36-6 37-6v23h-22c-13 0-29 4-36 9l-14 8 76 24 76 23-15 9-15 8-29-16-30-15h-101v10c0 6 6 10 13 10 17 0 87 48 87 60v10l-53-30-54-30-32 6-32 7-9 18c-15 27-12 61 9 95l19 32-19-5-19-5-6-40-7-39-8 8c-5 5-14 24-21 44l-13 35-50 44-50 44 42-44 42-45 12-35c7-19 20-47 31-62l18-27-10-6-10-6-10 6c-6 4-24 30-41 58l-31 52 7-29 6-29-26 17c-15 10-50 35-78 57-61 46-165 101-222 119-22 6-47 14-55 17l-15 5 40 13 40 13-20 2-20 3 35 7 35 7h-55c-30 1-77-5-105-12zm173-2c7-3 16-2 19 1 4 3-2 6-13 5l-19-1 13-5zm-290-10c6-2 18-2 25 0l12 5h-50l13-5zm367-11c28-11 69-29 93-41 23-12 42-19 42-16 0 9-121 63-155 70l-30 5 50-18zm260-12c-9-16-13-30-11-30 3 0 12 14 21 30 9 17 13 30 11 30-3 0-12-13-21-30zm-667 13c7-3 16-2 19 1 4 3-2 6-13 5l-19-1 13-5zm-48-13-15-10h10c6 0 17 5 25 10l15 10h-10c-5 0-17-5-25-10zm14-45-49-26-47-51-47-51-36-68c-35-68-71-167-62-175 2-3 10 17 17 43 18 66 65 160 106 210l34 42 76 50c82 55 85 66 8 26zm70-7-19-23 23 19c21 18 27 26 19 26-2 0-12-10-23-22zm40 1-18-20-3-67-3-67 20 49c12 27 29 61 39 75s21 32 25 39l7 12h-48l-19-21zm-93-56c-24-29-43-90-77-238-12-55-32-136-43-180-12-44-21-88-21-98v-18l-40-36c-22-20-40-40-40-45 0-13 22-9 42 9l18 16 1-29 1-29 12 38 12 39 24 14c14 7 41 20 60 29 19 8 26 13 15 10-11-2-37-7-58-11l-37-6 4 13c3 8 17 55 32 104l27 90 18-55c11-30 17-44 14-30s-10 60-16 103l-11 78 22 94 21 94 24 35c29 42 26 48-4 9zm862 20c9-2 23-2 30 0l12 5h-60l18-5zm-1064-20-14-18 18 14c9 7 17 15 17 17 0 8-8 3-21-13zm1112 13c2-2 15-9 29-15l25-12-19 15c-16 13-49 24-35 12zm-1181-71c-24-25-42-45-39-45s25 20 49 45 42 45 39 45-25-20-49-45zm1241 25c0-8 4-22 9-30l10-15-1 10c0 6-4 19-9 30l-9 20v-15zm24-89v-39l8 5c9 6 9 45-1 60l-8 13 1-39zm-1333-18c-24-34-65-114-60-118 2-1 22 31 44 71 44 77 49 93 16 47zm1357-88c-4-16-9-39-13-50l-7-20 16 28 16 28-3 22-4 22-5-30zm-788-80c1-16 5-43 9-60l8-30 2 25c3 35 0 62-11 80l-8 15v-30zm-650-21 1-19 5 13c3 7 2 16-1 19-3 4-6-2-5-13zm151-24v-35l5 18c2 9 2 25 0 35l-5 17v-35zm1238 10-15-10h12c6 0 15 5 18 10 8 12 4 12-15 0zm-1399-26 1-19 5 13c3 7 2 16-1 19-3 4-6-2-5-13zm707-20c12-17 28-37 37-44 18-15 20-36 3-43l-13-5 30-2c94-4 154-14 164-27 4-5 20-19 36-33l30-25-20 23-19 23 12 8 13 8-63 58-62 58-4-11c-2-6 4-21 12-34l15-23-54 3-55 4-41 46-41 47 20-31zm-633-14-18-20-13 11-13 10-9-18c-6-10-11-36-12-58l-3-40 12-29 11-28 14 12 15 11 10-19 11-20 20 5 20 5 1-18c1-11 0-50-1-89l-2-70-9-3c-5-2-9-13-9-23v-20l10 6 10 6 11-7 11-6-13-8-13-8 12-39c6-21 14-73 17-115 8-99 23-152 71-261l39-88 130 3 130 3-5 10c-3 6-28 20-57 31-28 12-73 37-100 56l-48 34-27 55c-15 30-28 58-28 62v9l38-7 39-6 69 12c38 6 82 18 97 26l28 14 19 42c10 23 27 64 37 91s26 54 34 59l16 10 24-6 24-6 33-70 33-70 30-25 29-25 56-7 56-7 44 7c24 3 58 13 75 22l31 16-7-34c-17-75-63-139-144-197l-54-38-2-31-3-32h284l12 12 12 12v-19l91 3 91 3-4 59-4 59 13-11c7-6 19-31 27-57l13-46 21-3 22-3-2 53-1 53-4-40-5-40-39 120c-22 65-58 162-80 214-43 100-53 143-68 276l-8 80 5-126 5-126-13-114c-7-63-16-116-20-119s-17-27-28-53c-21-48-91-146-104-147-4 0 2 24 13 53 12 28 30 79 41 112l19 60 5 147 5 146-10 7c-15 9-14 21 5 40 9 9 14 18 11 21-7 7-174 12-205 6l-23-5 23-11 23-12 21-52 21-53 15 23 15 23-23 35c-28 40-26 45 10 28l27-12 15-27c18-36 18-79-2-140l-16-49-34-29-34-30-34-6-34-7-58 12-58 12-32 32-31 31-17 53-18 53 6 34 7 35 21 11c11 6 33 15 48 19l27 8 31-15 31-15-16-34-16-33 11-26 12-25h30l10 26c12 31 12 37 2 30l-8-5-2 26-2 25 13-4 12-5 3-39c2-21 8-43 13-48l9-10v50l-1 49-14 25c-8 14-14 33-15 43v17h23l22 1-19 14-20 15h-79l-69-37-70-38-14-27-14-27-30 5-30 6-8-22-9-23-33 42-34 42-12-5c-7-3-25-1-41 4-15 5-51 14-78 20l-51 11-44-16-44-15-30 27-31 28 19-23c11-12 17-24 15-26-10-8-73-26-77-21-3 3-1 26 4 53l9 47 12-2 12-3-16 43-15 42-2 87c0 49-2 88-4 88-1 0-7-12-12-26l-10-26-13 5c-6 2-14 12-15 23-2 10-7 22-11 27l-7 7-19-20zm799-281c-31-12-40-9-20 6l19 14 10-6 11-6-20-8zm-524-68c0-5 10-11 21-14l22-6-7-33c-3-18-13-39-21-48l-15-14v44h-23l6-37c7-39 34-84 56-91l13-4-18 27-18 27 39-4 39-3 4 19 4 20-14 10-14 11 6 24 6 25 14-45c7-24 17-48 22-53l8-10v21c0 29-20 83-44 118l-20 30 16-13 16-13 4 12 4 11 36-15 36-15 11-20c14-27 14-85-1-134l-11-39-26-25c-14-14-41-32-59-40l-34-14h-106l-34 14-34 15-11 23c-6 13-11 27-11 31-1 4-8 15-17 23l-15 15v126l18 16c10 9 32 20 50 23l31 6-27-50-27-50 20-22 19-21 17 60c9 33 22 67 29 76 13 16 40 21 40 6zm770-175v-65l-21-6c-11-4-23-5-25-2-5 4 38 137 43 137 2 0 3-29 3-64zm-912-83c27-41 24-51-7-26l-22 18-9 40-8 40 11-19c7-10 22-34 35-53zm-217 601 1-19 5 13c3 7 2 16-1 19-3 4-6-2-5-13zm463-30c3-9 6-28 7-42v-27l7 18 8 18 29-40c32-42 83-81 106-81l14 1-31 13c-33 15-54 38-96 110-15 25-33 46-39 46h-11l6-16zm-478-51-6-48-30-50c-39-67-47-75-103-118l-49-37h16c25 0 109 31 137 51l26 18 7-6 6-6-1 54-2 54-4-28-4-28-38-39-38-40h-37l26 28c15 15 43 53 62 86l35 58 7 45c3 24 4 46 2 49-3 2-8-17-12-43zm281 17-5-20h9c5 0 9 9 9 20s-2 20-4 20-6-9-9-20zm1144-25c18-25 40-51 48-58s-5 14-28 46c-51 68-67 77-20 12zm-981-14c0-6 4-13 10-16l10-6-6 15c-7 18-14 21-14 7zm410 5c0-2 8-10 18-17l17-14-14 18c-13 16-21 21-21 13zm382-61v-30l5 18c2 9 2 23 0 30l-5 12v-30zm-447-25c10-11 20-20 23-20s-3 9-13 20-20 20-23 20 3-9 13-20zm170 10c3-5 11-10 16-10h10l-6 10c-3 6-11 10-16 10h-10l6-10zm-465-3c0-2 15-16 33-33l32-29-29 33c-28 30-36 37-36 29zm842-42v-30l5 18c2 9 2 23 0 30l-5 12v-30zm198-37 30-63v-90l-18-35c-11-18-25-36-33-38l-14-5 13 14 12 13-1 31-2 30-4-22c-2-13-9-23-14-23h-9v-53c0-28-4-67-9-85l-10-32h7c10 0 64 87 79 124l11 31 1 70 1 70-30 63c-16 34-31 62-34 62s8-28 24-62zm-188-23v-30l5 18c2 9 2 23 0 30l-5 12v-30zm10-55v-25l5 13c2 6 2 18 0 25l-5 12v-25zm-42-16c0-17 56-176 77-219 11-22 24-51 28-65l8-25-17 14c-20 17-20 16 4-44l21-50-6 30-6 30 33-31c37-35 108-84 121-84 5 0-5 17-22 39-17 21-47 67-67 102-19 35-42 68-50 72l-15 8 5 17 6 17-11 15-10 15 6-25 7-25-11 10c-6 6-31 55-56 110-24 55-45 95-45 89zm-480-61v-39l16-22c8-12 22-22 30-22h14v30h-30l-6 24c-3 14-3 29 0 34l6 10-15 12-15 12v-39zm-838-78v-30l5 18c2 9 2 23 0 30l-5 12v-30zm1398 20c0-5 5-17 10-25l10-15v10c0 6-5 17-10 25l-10 15v-10zm-1355-29 11-55 6-26-58-108-57-108-8 12-7 12-11-52c-6-29-11-61-11-71v-20h36l1 20c2 27 39 100 69 136l23 29-13-45c-7-25-16-66-20-92l-7-48h260l-33 35c-47 50-94 142-144 285-24 69-40 112-37 96zm900 14-6-10h10c6 0 11 5 11 10 0 6-2 10-4 10-3 0-8-4-11-10zm-958-89-7-33-46-77c-25-42-64-95-87-118l-41-43h11c6 0 31 16 55 35s51 38 60 41l17 6 14 37c19 46 41 155 35 172l-5 14-6-34zm830-125-6-15 15 6c15 6 19 23 5 23-5 0-11-7-14-14zm625-66v-25l5 13c2 6 2 18 0 25l-5 12v-25zm-412-495v-56l-19 11c-11 5-33 10-49 10h-30l-26-31-26-31v-69l15-29c26-50 79-65 123-34l22 15v-21h63l-7 53c-3 28-6 94-6 145v92h-60v-55zm0-104c14-28 12-52-7-73-20-22-41-23-65-1l-18 16v53l12 12 12 12h55l11-19zm-929 135-13-15 7-21 6-20h50l6 16 6 17-10 16c-6 9-17 17-25 19l-15 3-12-15zm339-48c0-35 3-100 7-145l6-83h56l3 32 3 31 10 4 10 3 23-35 22-35h35c19 0 35 1 35 3s-18 28-40 57l-40 54 35 36c19 20 35 39 35 43s-15 7-32 7h-33l-28-35c-15-19-32-35-37-35h-10v160h-60v-62zm-578-97c2-77 6-141 8-143 3-2 47-2 98 0l92 3v60l-65-7-65-7v79c0 44-3 96-6 117l-7 37h-59l4-139zm858 72c-8-3-25-15-37-26l-23-20-6-34-6-33 12-31c7-16 22-36 34-44l20-15h46l45 1 18 13c21 16 22 32 2 40l-16 6-19-12-19-12-27 9c-15 6-29 15-31 21l-4 12 71 7 70 7v57l-22 26-23 26-35 4c-19 2-42 2-50-2zm69-56 11-14-7-6c-7-8-83-10-83-3 0 2 3 11 6 20l6 16h56l11-13zm-507 37-22-15v22l-27-3-28-3-3-55c-2-30-1-74 3-97l6-43h62l-7 60-7 59 21 21 20 20 20-10 19-10 3-68 3-67 28-3 27-3v162l-25 24-24 25h-23c-13 0-34-7-46-16zm-182-93V860h61l-3 98-3 97-27 3-28 3V961zm-90-370c0-59 3-129 6-155l7-47 96 3 96 3 3 19 4 18-84-3-83-4v110l68 3 67 3v29H880v100h160v30H840V591zm1190 74v-35h-40v-30h38l7-91 7-90 25-10 26-10 18 6 19 6v28l-27 3-28 3-3 77-3 77 22 3 22 3 5 13 4 12h-52v70h-40v-35zm-134-48-24-24-6 19-5 20-13-4-13-5 1-26c0-15 1-63 2-107l2-80h30v137l20 26 20 26 23 3 22 3v30l-17 3-18 3-24-24zm-501 1c-11-6-23-15-26-20l-6-10-6 16-6 16h-31v-78c0-44 3-113 6-155l7-77h27v123l18-16 19-17h81l26 31 26 31v90l-17 28c-26 45-77 61-118 38zm74-44 21-27v-78l-25-24c-31-31-49-31-80 0l-25 24v78l21 27 20 26h48l20-26zm146 34-26-23-8-35-7-35 7-35 7-35 27-22 26-23h76l27 21c14 11 26 25 26 30 0 14-26 11-40-6l-12-15h-79l-14 32c-7 18-11 36-9 40l5 8h159v20c0 29-27 78-49 90-11 5-35 10-55 10h-35l-26-22zm99-19 26-20v-39h-65c-36 0-65 2-65 4 0 3 4 16 10 31l10 26 22 9c32 12 32 12 62-11zm-624 22c0-4 15-28 34-53l35-45-35-51c-39-59-40-62-16-62h17l25 40c14 22 28 40 31 40 4 0 18-18 33-40l26-40h41l-7 13c-4 6-20 28-36 48-35 46-35 56 2 107 35 49 36 52 12 52h-17l-25-40c-14-22-27-40-30-40-3 1-17 19-32 40l-28 40h-15c-8 0-15-4-15-9zm0-540-35-6 95-22c52-12 138-27 190-34l95-11 130 5 130 5 103 22c57 12 120 28 140 35l37 14-425-1c-234 0-441-3-460-7z"/></g><g fill="#090909" transform="matrix(.1 0 0 -.1 0 300)"><path d="M1518 2853c7-3 16-2 19 1 4 3-2 6-13 5l-19-1 13-5zm369-181c12-11 20-22 17-25s-1-8 4-11l10-6-2 17-3 17-24 14-24 14 22-20zm113-61c0-11 4-23 10-26l10-6-15-29c-19-37-19-53 0-20l14 25 1-27v-26l-12-5-13-5 12-1 12-1 17 35 17 36-17 18c-9 9-16 25-16 34v17h-20v-19zm68-39 4-32 9 6c12 7 11 17-4 39l-14 18 5-31zm-388-462-35-19 13-1c7 0 26 7 41 15l28 14 38-6 38-6-7 11-7 12h-37l-37-1-35-19zm97-60c8-17 18-52 23-78l8-47 1 36 1 37-15 35c-8 20-19 38-24 41l-10 6 16-30zm53 25c0-2 9-20 20-40s20-43 20-52v-17l16 16 16 16-23 41-23 41h-13c-7 0-13-2-13-5zm-688-47c-5-7-19-32-31-56l-22-44 12-14c6-8 15-14 20-14h9v24c0 13 9 45 20 70l19 46h-8c-5 0-13-6-19-12zm93 5c17-3 39-12 49-21l19-17-14 23-14 22-35-1-35-2 30-4zm71-56c3-10 9-15 12-12s0 11-7 18l-12 12 7-18zm366-12-1-30 15-25 15-25-7 20c-4 11-10 36-14 55l-8 35v-30zm60-17 3-23h20l3 23 3 22h-32l3-22zm-531-23-1-30 20-32c11-18 22-33 25-33s-2 12-11 26c-10 14-21 42-25 62l-7 37-1-30zm121 5v-25l5 13c2 6 2 18 0 25l-5 12v-25zm-52-24c0-18 16-29 30-21l9 6-6 14c-3 8-11 15-19 15h-14v-14zm811-142 1-19 5 13c3 7 2 16-1 19-3 4-6-2-5-13zm-41-109c0-5 5-17 10-25l10-15v10c0 6-5 17-10 25l-10 15v-10zm-89-31 1-19 5 13c3 7 2 16-1 19-3 4-6-2-5-13zm-1277-56-29-33 33 29c17 17 32 31 32 33 0 8-8 1-36-29zm167-24 1-19 5 13c3 7 2 16-1 19-3 4-6-2-5-13zm81-44v-35l5 18c2 9 2 25 0 35l-5 17v-35zm88 26c0-2 8-10 18-17l17-14-14 18c-13 16-21 21-21 13zm-268-31v-30l5 18c2 9 2 23 0 30l-5 12v-30zm89-11 1-19 5 13c3 7 2 16-1 19-3 4-6-2-5-13zm1450 0 1-19 5 13c3 7 2 16-1 19-3 4-6-2-5-13zm-411-370v-55l-22 8c-13 4-38 7-57 7l-34-1-19-23c-10-12-21-34-24-47l-7-25 12-40 12-40 37-15 37-15 30 17 29 17 4-11 4-11h48v290h-50v-56zm-22-90 22-15v-25c0-14-5-34-10-45l-11-19h-55l-12 12-12 12v59l17 19c20 22 32 23 61 2zm-922 110-6-17 11-13c6-8 17-14 24-14s18 6 24 14l11 13-6 17-6 16h-46l-6-16zm348-36c3-29 6-92 6-140v-88h49l3 32 3 33 16 3 16 3 24-36 24-35h66l-41 55-41 55 37 45 36 45h-60l-36-40c-20-22-38-40-41-40s-5 36-5 80v80h-63l7-52zm-580-50c3-50 6-113 6-140v-48h190v50H762l-6 16c-3 9-6 60-6 115v99h-63l7-92zm429 10c-13-6-23-16-23-21v-11l-14 19-13 18-17-6-16-6V860h50v129l16 15c8 9 22 16 29 16s21-7 29-16l16-15V870h52l-4 81-3 81-24 19c-26 21-45 23-78 7zm400-3-21-15-12-35-12-35 11-33 11-33 29-17 29-17h68l22 16 22 15-6 10-6 10-44-7-44-6-15 12c-8 7-15 19-15 26v14h140v20c0 29-26 76-45 84-9 3-33 6-54 6h-37l-21-15zm91-31c9-8 16-20 16-25v-9h-90v15c0 15 26 34 47 35 6 0 19-7 27-16zm-684-69v-95h24c14 0 27 4 31 9 3 5 2 48-1 95l-7 86h-47v-95zm-84-407c4-84 7-154 8-154 0-1 45 1 99 3l97 6v17H880v120h140v30H880v99l77 3 76 3 5 13 4 12H839l7-152zm1194 117v-35h-52l4-12c3-7 14-14 26-16l22-3V434l12-12 12-12h66v20h-18c-10 0-23 5-30 12l-12 12v148l20 5c27 7 25 21-2 25l-23 3-3 33-3 32h-19v-35zm-636-45c-12-5-25-13-29-19-9-16-25-13-25 5v16l-12-4c-7-3-13-10-12-16 1-7 2-73 3-147l1-135h30v55c0 59 3 63 26 40l15-15h30c41 0 66 15 84 50l15 29v66l-20 33-20 32-26 10c-29 12-32 12-60 0zm66-42 20-22v-96l-20-20-20-20h-44l-23 22-23 21v93l16 22 15 22h58l21-22zm154 34c-42-34-56-98-34-156l9-25 30-16c17-8 43-15 59-15h29l27 21c48 37 27 55-23 18l-28-20-27 7-26 6-15 21c-8 12-15 29-15 39v18h170v15c0 25-28 72-52 89l-22 16h-61l-21-18zm96-22 20-20v-40h-130v15c0 9 11 27 25 40l24 25h41l20-20zm120-70V410h30v146l16 22 15 22h47l6 15 5 15h-46l-18-20c-10-11-22-20-27-20-4 0-8 9-8 20v20h-20V520zm-626 60c-15-22-30-40-35-40-4 0-17 16-29 35l-22 35h-40l29-37c17-21 33-44 37-50l7-13-29-42c-16-24-32-49-36-55l-7-13h31l26 40c15 22 30 40 35 40s21-18 35-40l27-40h13c20 0 18 7-22 62l-36 50 29 42c17 22 33 47 37 54l7 12h-31l-26-40zm582-525c-21-32-7-32 17 0l18 25h-9c-6 0-17-11-26-25zm-564-9c6-14 15-26 20-26h9l-11 19c-5 11-15 23-20 26l-10 6 12-25z"/></g></g></svg>