<?xml version="1.0"?><svg version="1.2" baseProfile="tiny-ps" viewBox="0 0 300 300" xmlns="http://www.w3.org/2000/svg" xmlns:xlink="http://www.w3.org/1999/xlink"><title>ligo</title><g><g fill="#eae1cb" transform="matrix(.1 0 0 -.1 0 300)"><path d="M814 2884c3-16 9-76 12-134l6-105-119-140c-65-77-193-228-283-335s-193-228-227-269l-63-74v-598l263-283c144-155 270-291 280-302l17-21-40-50-40-51 62-59c35-32 96-90 137-128l73-70 57 61c31 34 105 114 164 178l109 115-4 10c-1 6-142 162-313 347s-329 359-352 386l-43 50v258l33 37c19 21 129 146 247 278 117 132 216 244 220 248l7 8 117-136 117-137 95 94c53 51 100 100 104 109l9 16-12 71-12 71-259 280c-142 154-266 283-275 285-9 3-34 8-55 12l-39 7 7-29zm1166-1140c-107-37-182-127-200-238l-8-51 10-55c13-74 37-117 95-171l49-46 40-14 39-13h65l65 1 51 26 52 26 36 42 36 42 20 54 20 54v79h-240v-120h50v-26l-29-17-29-17h-79l-33 23-33 22-18 35-19 35v80l19 35 18 35 33 23 33 22h82l37-25 38-25 57 32c32 17 60 33 63 36 3 2-18 25-46 51l-51 47-53 17c-64 21-111 21-170 1zm-830-289v-295h360v150h-220v440h-140v-295zm450 275c-29-29-30-72-3-102l16-18h76l15 22 16 22v55l-26 20-27 21h-47l-20-20zm915-141c-16-4-47-23-69-41l-39-32-18-40-19-41v-119l21-43 21-43 35-29 36-30 48-11 48-12 33 7c71 16 128 62 159 130l19 40v101l-26 52-26 53-32 23c-58 43-124 55-191 35zm110-159 19-21v-68l-19-21-18-20h-56l-20 26c-24 30-26 55-10 87 16 29 28 37 60 37h26l18-20zm-1051 147c-2-7-3-102-2-212l3-200 73-3 72-3v431h-141l-5-13zm296-727v-80h87l16 18c10 10 17 27 18 38l1 19 14-34 15-34-10-29-10-29 16 3 15 3 29 78 28 77h-29l-12-27-11-28-10 28-11 27h-35l6-17 6-18-20 18-20 17h-53v50h-30v-80zm87-34-6-16h-41v48l13 5 12 5 14-13 14-13-6-16zm713 34v-80h30v80h40v-80h30v86l-12 12c-7 7-22 12-35 12h-23v50h-30v-80zm-530-5v-75h100v30h-71l3 18 3 17 28 3 28 3-4 12-4 12-26 3-27 3v19h70v30h-100v-75zm255 65c-3-5-3-14 0-20l6-10h-12c-6 0-18 8-25 18l-14 17-11-17-10-18h-79V770h30v78l18 4c9 3 23 3 30 1l12-5v-80l13 4 12 5 3 36 3 37h19v-80h30v44l16-22 15-22h59v-50h30v94l16-22 15-22h89v110h-89l-15-22-16-22v44h-89l-15-22-16-22-1 24c-1 14-1 30 0 37 1 6-3 14-8 17l-10 6-6-10zm112-94-6-16h-41v48l13 5 12 5 14-13 14-13-6-16zm121 10-3-21-22-3-23-3v49l13 5c6 2 18 2 25-1l13-5-3-21z"/></g><g fill="#c7beac" transform="matrix(.1 0 0 -.1 0 300)"><path d="m827 2768 5-133-346-409-346-409v-578l122-132c137-148 208-223 326-347 44-47 90-97 101-112l21-26-40-50-40-50 126-119c69-65 129-119 133-121 4-1 42 35 84 80 42 46 112 121 156 168s81 90 81 95c0 9-57 74-280 315-54 58-170 184-259 280l-161 175v287l118 131c65 73 176 197 246 277 71 80 132 149 136 153l7 8 112-130c62-72 118-131 125-131 6 0 53 42 104 93l93 93-7 68-7 68-37 43c-21 24-140 154-264 288l-227 245-31 6c-17 3-36 6-43 6h-12l4-132zm1150-1032c-21-8-53-24-73-37l-35-24-34-50-34-50-12-54-11-54 6-50 7-50 24-47c29-58 74-103 129-133l41-22h160l47 27 46 28 36 42 36 42 15 50c8 27 15 67 15 88v38h-220l-6-24c-3-13-4-38-2-57l3-34 34-5 35-5-33-28c-39-33-70-41-116-33l-35 7-35 34-34 35-11 40-11 40 7 35c3 20 16 50 28 68l21 32 35 18 35 18 42-4 41-4 31-22 30-22 51 26 50 25v13c0 18-58 71-100 92l-35 18-65 4-65 3-38-14zm-825-278 3-283h350v120l-107 3-108 3-2 217-3 217-68 3-67 3 2-283zm448 262-20-20v-41l25-24 24-25h18c10 0 29 7 41 16l22 15v66l-18 16-19 17h-53l-20-20zm895-147c-45-23-74-53-98-98l-20-40v-120l21-41c26-50 69-88 118-104l36-12 47 4 46 5 41 27 41 27 28 50 27 51-4 68-4 69-30 43-30 43-39 22-40 23-55-1h-55l-30-16zm132-135 23-21v-86l-26-20-27-21h-44l-20 23c-11 12-24 32-27 43l-7 21 11 28c13 35 38 54 69 55h25l23-22zm-1047-63v-205h130v410h-130v-205zm292-522 3-78 38-3 39-3 19 17 19 17 1 21 1 21 13-30 14-30-6-34-6-34 13 5 12 4 24 63c13 35 24 70 24 77 0 25-20 14-33-18l-14-33-7 33-8 32h-28v-33l-18 16-19 17h-53v50h-31l3-77zm85-37-6-16h-41v48l13 5 12 5 14-13 14-13-6-16zm713 34v-80h30v80h40v-80h30v86l-12 12c-7 7-22 12-35 12h-23v50h-30v-80zm-530-5v-75h100v30h-71l3 18 3 17 28 3 28 3-4 12-4 12-26 3-27 3v19h70v30h-100v-75zm256 68c-11-11-6-23 9-23 8 0 15 4 15 9 0 13-16 22-24 14zm-56-18v-15h-90V770h30v78l18 4c9 3 23 3 30 1l12-5v-80l13 4 12 5 3 29c2 16 6 36 9 44l7 15 5-44 6-44 13-5 12-4v112h-48l-6 15c-3 8-10 15-16 15-5 0-10-7-10-15zm102-27-12-12v-62l12-12 12-12h55l3-22c2-12 9-23 16-26l12-4v162h-86l-12-12zm66-42-3-21-22-3-23-3v49l13 5c6 2 18 2 25-1l13-5-3-21zm54 42-12-12v-62l12-12 12-12h86v110h-86l-12-12zm66-42-3-21-22-3-23-3v49l13 5c6 2 18 2 25-1l13-5-3-21z"/></g><g fill="#a1998c" transform="matrix(.1 0 0 -.1 0 300)"><path d="M824 2878c4-13 9-70 13-128l6-106-346-409-346-410-1-295v-296l277-298c153-164 280-303 281-308 2-5-12-28-32-53-20-24-36-48-36-53 0-9 232-224 248-230 9-3 322 321 322 333 0 4-319 354-647 709l-63 68v266l27 34c27 32 384 435 452 511 19 20 37 37 40 37 4 0 55-58 115-130 60-71 111-130 115-130 3 0 50 44 103 98l96 97-10 69-9 69-256 276c-141 152-261 279-267 282-6 4-28 10-50 13l-39 7 7-23zm1176-1137c-14-4-43-17-66-29l-41-21-33-37c-18-21-42-58-52-82l-20-43v-62l-1-62 17-52 17-51 39-45 40-45 47-23 48-23h140l42 22c23 12 59 39 79 59l37 36 19 44c10 23 22 66 25 93l6 50h-223v-100h71l-11-21c-6-11-26-29-43-39l-32-20h-82l-33 23c-18 12-43 35-54 50l-21 28v125l25 37 25 37 32 15 31 15h79l36-24 36-25 50 27c28 15 51 30 51 33 0 17-44 58-90 83l-51 28-57 4-57 3-25-8zm-840-286v-285h340v130h-220v440h-120v-285zm445 265-17-19v-53l13-13c8-7 23-16 35-19l21-6 26 21 27 20v58l-22 15c-12 9-32 16-44 16h-21l-18-20zm908-141-33-10-36-36c-20-20-42-51-50-69l-14-33v-113l26-47 25-47 40-26 41-27 38-6 38-6 41 11 41 11 37 32 36 32 18 40 19 40v100l-19 40c-23 49-64 89-113 109l-37 16-33-1c-18 0-48-5-65-10zm107-129 18-10 11-33 12-34-7-19c-4-10-16-29-27-41l-20-23h-55l-22 18-21 17-6 40-5 40 22 28 21 27h30c17 0 39-4 49-10zm-1036 117c-2-7-3-98-2-202l3-190 63-3 62-3v411h-121l-5-13zm296-716v-79l42 2 42 1 15 26 15 27-18 27-18 27-29-4-29-5v57h-20v-79zm64 3 16-6v-46l-16-6-17-6-13 11c-17 14-18 31-2 47 14 14 12 14 32 6zm730 63c-3-8-4-43-2-78l3-64h20l3 35c2 19 7 39 12 44l9 9 16-13 15-12v-69l10 6 10 6v30c0 17-5 39-10 50l-11 19h-49v19c0 11-5 23-10 26l-10 6-6-14zm-524-73v-75l43 3 42 3v20l-32 3-33 3v39h24c14 0 28 5 31 10l6 10h-61v29l32 3 31 3 5 13 4 12h-92v-76zm188 49-3-16-40-1-40-1v-95l10-2 10-3 3 35 3 35 16 12 16 13 14-11 13-11v-78h20v80h10c6 0 10 7 10 15s-4 15-10 15c-5 0-10 7-10 15 0 20-18 19-22-2zm62 7c0-5 5-10 10-10 6 0 10 5 10 10 0 6-4 10-10 10-5 0-10-4-10-10zm-410-29c0-7 7-28 15-48l15-36-6-34-6-33h20l26 68c14 37 26 73 26 81v13l-12-4c-6-2-17-19-23-38l-11-33-10 33-9 33-13 5-12 4v-11zm410-47v-55l10 6 10 6v99h-20v-56zm46 40-16-15v-46l20-18 19-17 26 4 25 5v-58l10 6 10 6v146l-39 1-40 2-15-16zm52-13 14-8-4-24-3-24h-38l-10 17-11 16 13 16c15 18 21 19 39 7zm68 13-16-15v-46l19-17 19-17 34 3 33 4 3 50 3 51-40 1-40 2-15-16zm62-34 4-23-14-8c-20-13-26-11-39 13l-12 21 19 14c24 17 38 12 42-17z"/></g><g fill="#777067" transform="matrix(.1 0 0 -.1 0 300)"><path d="M827 2894c-2-2-1-24 4-47 4-23 8-80 8-127l1-85-345-408-345-407v-293l1-292 215-230c118-126 246-264 284-305l68-76-40-52-40-52 78-72c43-40 101-93 128-118l48-45 89 95c49 52 121 129 159 171l69 76-302 329c-165 181-325 354-354 384l-53 55v283l256 288c141 159 258 290 259 292 2 3 211-238 227-262l7-11 97 95 96 95-6 69-6 69-23 26c-12 15-130 143-261 284l-239 257-26 6c-14 3-31 7-38 9-6 2-13 2-16-1zm1186-1155c-50-9-75-22-125-61l-37-29-32-64-32-65 5-77 5-78 21-41c12-23 33-55 47-72l25-30 52-26 52-26h134l36 15c20 9 55 32 77 52l41 37 23 46 24 47 7 52 7 51h-223v-100h70v-9c0-5-17-23-37-40l-38-31h-98l-34 21-34 21-19 39-20 38v96l23 40 22 40 45 23 45 23 35-6c19-3 47-15 62-26 15-10 32-19 37-19 13 0 90 40 96 50 3 4-15 26-38 48l-44 39-34 11c-55 17-101 20-146 11zm-853-279v-280h341l-3 58-3 57-107 3-108 3-2 217-3 217-57 3-58 3v-281zm452 264-22-15v-56l18-16 19-17h52l15 22c22 31 20 51-7 76-28 26-45 27-75 6zm904-148c-49-18-94-60-117-111l-19-40v-101l23-44 22-44 38-30 38-30 67-4 67-3 40 23 39 23 29 46 28 46 5 54 6 54-29 55-28 55-40 27-40 28-45 5-45 5-39-14zm119-137 20-20v-87l-19-21-19-21h-76l-20 26-21 27v69l30 30 31 30 27-7c15-3 36-15 47-26zm-1045-59v-200h120l-2 198-3 197-57 3-58 3v-201zm290-523v-74l32-7 31-6 19 16 18 17v56l-21 12-21 11-19-5-19-5v23c0 13-4 27-10 30l-10 6v-74zm75-32v-30h-50l-3 18c-2 10-1 25 2 33l6 15 22-3 23-3v-30zm728 30c0-44 1-71 4-60 2 11 6 30 9 43l5 23 22-3 22-3 3-37 3-38h19v56l-16 23-16 23-23-6-24-6-4 32-4 33v-80zm-533-5v-70l48 2 47 1-37 4-38 4v49h50v20h-50v40h60v20h-80v-70zm188 43c-2-10-2-39 0-65l4-48h18v78l13 6 12 6-12 6c-7 3-13 12-13 20 0 20-17 17-22-3zm62 6v-10l10 6c6 3 10 8 10 11 0 2-4 4-10 4-5 0-10-5-10-11zm-402-24-6-7 14-41 15-42-5-27-5-28h9c8 0 34 62 55 130l8 25-16-13c-8-7-18-25-22-40l-7-27-17 38-16 38-7-6zm263-50 1-50 5 20c2 11 6 30 9 43l4 22h15c8 0 15 4 15 9v9l-25-2-25-1 1-50zm139 6v-51h20v89l-10 6-10 6v-50zm50 29c-26-26-25-45 1-71l21-21 24 6 24 6v-50h21l-3 71-3 72-33 3-32 4-20-20zm59-19 10-18-13-18-13-18-17 6c-9 4-19 13-22 22l-6 15 12 15c17 20 37 19 49-4zm61 19c-26-26-25-45 1-71l21-21 21 6c12 3 28 6 35 6h13l-3 46-3 47-33 3-32 4-20-20zm64-22 11-18-17-16-16-17-16 6c-9 4-19 13-22 22l-6 15 12 16 13 15 15-3c8-2 20-11 26-20z"/></g><g fill="#4c4643" transform="matrix(.1 0 0 -.1 0 300)"><path d="m838 2763 4-128-346-410-346-410v-574l285-306 285-306-7-12c-3-7-22-31-40-53l-34-42 126-116 126-117 97 103c53 57 123 131 156 165 32 34 56 66 55 72-4 9-188 211-546 600l-153 166 1 145v145l254 285c140 157 258 285 263 285s57-57 116-127c59-71 111-128 115-128 3 0 48 42 99 93l93 94-7 64-7 63-47 51c-25 27-131 142-234 255-104 113-200 217-215 232l-26 27-36 6-36 7 5-129zm1117-1047-51-23-42-48-42-48-16-55-16-56 5-58 5-58 21-43c11-24 36-58 53-77l33-33 54-25 53-25 68 5 69 5 44 26c80 47 132 129 139 217l3 45h-210v-90l33-3 32-3v-10c0-5-11-21-24-34l-24-24-40-11-41-11-28 7c-39 9-90 49-108 84l-15 29v118l23 33c12 18 34 42 48 52l26 19 41 6 41 5 46-26 47-26 50 26 50 26-28 29c-15 16-50 40-78 54l-50 25h-121l-50-24zm-795-261v-275h340v110h-220v440h-120v-275zm447 257-17-19v-43l25-16 25-16 25 6 26 7 10 26 10 26-16 23-15 24h-57l-16-18zm881-152-37-20-24-32c-14-18-30-50-37-72l-12-38 5-44 4-43 20-38 20-38 40-28 40-28 41-6c22-3 57-2 77 1l37 7 44 41 44 41 16 53 15 53-7 38c-3 21-17 57-30 80l-25 42-43 26-43 25h-54l-54-1-37-19zm143-119 29-29v-71l-22-25-23-25-26-6-26-6-31 26-32 27v89l25 24 24 25h53l29-29zm-1041-66v-195h120v390h-120v-195zm291-521-1-71 37-1 37-2 13 11 13 11v47l-22 15-22 15-22-5-22-6-5 29-4 28-2-71zm80-10 13-16-11-16-10-17h-48l-3 18c-2 10-1 25 2 33l5 14h39l13-16zm722 6v-75l6 40 6 40h50l6-40 6-40 2 42 1 42-16 9c-9 5-25 7-35 5l-17-5-5 29-4 28v-75zm-533-5v-65l43 1 42 2-35 6-35 6-3 23-3 22h25c14 0 28 5 31 10l6 10h-61v39l38 4 37 4-42 1-43 2v-65zm188 38c-2-9-1-36 1-60l3-43h18v78l13 5 12 5-12 1-13 1v15c0 20-18 19-22-2zm-55-10-23-4 2-47 1-47 4 39 4 38 20 5c10 3 19 9 19 14s-1 8-2 8c-2-1-13-4-25-6zm181-3c-25-10-35-30-27-59l5-21 24-6c13-3 30-4 38-1l15 6 4-32 4-32 1 74 2 74-6-6-7-6-16 8-16 9-21-8zm51-29c3-10 3-26-1-35l-7-17-26 3-26 3-3 18c-2 10-1 25 2 33l5 14h50l6-19zm68 28-23-8-1-18c-4-51 9-64 59-61l32 2v89l-6-6-7-6-16 8-16 9-22-9zm52-28c3-10 3-26-1-35l-7-17-26 3-26 3-3 18c-2 10-1 25 2 33l5 14h50l6-19zm-634 21c-1-7 6-28 14-48l14-35-9-24-10-25h8c10 0 56 129 49 136-3 3-11-12-18-33l-12-38-18 40c-10 22-18 34-18 27zm402-37v-50l4 28c2 15 2 37 0 50l-4 22v-50z"/></g><g fill="#231f21" transform="matrix(.1 0 0 -.1 0 300)"><path d="M834 2874c4-10 10-67 13-125l6-106-104-124c-58-68-216-256-352-416l-247-293v-563l42-46c23-25 73-80 112-121 61-65 192-206 369-396 26-28 47-55 47-59s-16-28-36-52c-19-24-34-48-32-53 4-11 230-220 239-220 6 0 277 284 297 311l12 18-62 68c-35 37-93 99-129 138-36 38-139 151-229 250-91 99-191 207-222 240l-58 60v301l127 145c70 79 138 155 151 169 12 14 68 78 125 142 56 64 107 117 113 117 7 1 60-56 119-126 59-71 110-129 114-131 3-1 48 40 99 91l93 93-10 62-10 63-20 24c-10 14-128 142-261 285l-241 260h-19c-10 0-26 3-36 7l-17 6 7-19zm1155-1147c-87-33-141-83-175-163l-17-39v-143l27-56 27-55 41-35 41-35 50-17 50-17 52 6 52 5 41 21c22 11 54 35 72 53l33 33 24 53 23 53v79h-200v-100h70v-9c0-5-16-23-35-39l-35-31-35-7-35-6-34 6-33 6-36 35-36 35-12 42-11 42 6 41 7 40 24 36 23 36 35 16 35 17h79l36-24 35-24 39 20c21 11 42 24 46 28l9 8-29 27c-15 14-46 36-67 47l-40 20-55 4-56 4-36-13zm-819-272v-275h320v109l-107 3-108 3-3 218-2 217h-100v-275zm436 252-15-22 6-23 6-24 25-9 25-10 23 16 24 15v49l-16 15-15 16h-49l-14-23zm897-142c-17-7-45-28-61-45l-31-32-15-46c-20-57-20-78-1-133l16-44 31-32 32-33 43-16 43-17 42 6 41 6 40 28 40 28 24 44 23 44v108l-19 37c-22 43-53 73-98 96l-32 16h-43l-43-1-32-14zm132-120 25-24v-92l-25-24-24-25h-26c-15 0-35 5-47 11l-20 11-14 33-14 34 6 31 7 31 25 19 25 20h58l24-25zm-1045-70v-195h110v390h-110v-195zm1093-525v-75l4 35c3 19 10 41 16 49l12 15-12-7-12-7-4 32-4 33v-75zm-533-5v-65l43 2 42 1-38 4-38 4 3 60 3 59h-15v-65zm195 25-6-10h10c6 0 11 5 11 10 0 6-2 10-4 10-3 0-8-4-11-10zm-85-45c0-27 2-46 4-44 8 8 10 78 3 85l-7 7v-48zm143 0v-50l4 28c2 15 2 37 0 50l-4 22v-50zm47 30c-7-9-11-17-9-20 3-2 10 5 17 15 14 24 10 26-8 5zm69 8c-3-24 2-127 6-131 3-3 5 27 5 66 0 40-2 72-5 72s-5-3-6-7zm50-10-14-18 18 14c9 7 17 15 17 17 0 8-8 3-21-13zm62 0 11-13-4-25-5-25 8-6 9-5v88h-30l11-14zm106 10 12-8 4-40 4-40-1 44-1 44-15 4-15 5 12-9zm-766-39 1-19 5 13c3 7 2 16-1 19-3 4-6-2-5-13zm469-11c0-6 8-17 18-24l17-14-15 20c-8 11-16 22-17 24-2 2-3 0-3-6zm-412-26 5-19 8 14c12 19 11 25-5 25h-13l5-20zm532 19c0-2 8-10 18-17l17-14-14 18c-13 16-21 21-21 13z"/></g></g></svg>